<svg xmlns="http://www.w3.org/2000/svg" xmlns:xlink="http://www.w3.org/1999/xlink" viewBox="0 0 64 64"><defs><style>.cls-1{fill:url(#linear-gradient);}.cls-2{fill:url(#linear-gradient-2);}</style><linearGradient id="linear-gradient" x1="4.07" y1="30.1" x2="61" y2="30.1" gradientUnits="userSpaceOnUse"><stop offset="0" stop-color="#9f2fff"/><stop offset="1" stop-color="#0bb1d3"/></linearGradient><linearGradient id="linear-gradient-2" x1="41.71" y1="19.54" x2="43.68" y2="19.54" xlink:href="#linear-gradient"/></defs><g id="CCTV"><path class="cls-1" d="M61,18.2a1,1,0,0,0-.76-.66L16.29,9a1,1,0,0,0-1.18.79L14.3,14h0L11.84,26.69a1,1,0,0,0,.79,1.17l8.21,1.59a4.65,4.65,0,0,0,2.8,4.64l-1.51,7.75a4.68,4.68,0,0,0-4.44,3.67h-8a4.69,4.69,0,0,0-4.57-3.68,1,1,0,0,0-1,1v7.35a1,1,0,0,0,1,1,4.67,4.67,0,0,0,4.56-3.67h8.06a4.67,4.67,0,1,0,6.41-5.29l1.5-7.75a4.67,4.67,0,0,0,4.33-3.26l16.7,3.24h.19a1,1,0,0,0,.75-.33l1.82-2.07,2.61.51c5.93,1.24,10.23-6,6.29-10.6l2.46-2.79A1,1,0,0,0,61,18.2ZM6.07,49V44A2.68,2.68,0,0,1,6.07,49Zm18.86-2.47a2.68,2.68,0,0,1-5.35,0A2.68,2.68,0,0,1,24.93,46.51Zm.56-14a3.62,3.62,0,0,1-.5,0,2.71,2.71,0,0,1-2.18-2.61l5.14,1A2.67,2.67,0,0,1,25.49,32.48Zm21-.11L14,26.08,16.07,15.4l23.26,4.51a1,1,0,0,0,.38-2L16.45,13.43l.44-2.25,41.2,8-1.76,2L46,19.17a1,1,0,0,0-.38,2L54.8,22.9ZM57.72,27a4.56,4.56,0,0,1-5.33,3.59l-1.46-.28,6-6.82A4.49,4.49,0,0,1,57.72,27Z"/><path class="cls-2" d="M42.89,18.56a1,1,0,0,0-.39,2A1,1,0,0,0,42.89,18.56Z"/></g></svg>