<?xml version="1.0" encoding="iso-8859-1"?>
<!-- Generator: Adobe Illustrator 19.0.0, SVG Export Plug-In . SVG Version: 6.00 Build 0)  -->
<svg version="1.1" id="Capa_1" xmlns="http://www.w3.org/2000/svg" xmlns:xlink="http://www.w3.org/1999/xlink" x="0px" y="0px"
	 viewBox="0 0 512 512" style="enable-background:new 0 0 512 512;" xml:space="preserve">
<g>
	<path style="fill:#7D8AFF;" d="M142,86v340h370V86H142z"/>
	<path style="fill:#7D8AFF;" d="M30,426h52c16.569,0,30-13.431,30-30V116c0-16.569-13.431-30-30-30H30C13.431,86,0,99.431,0,116v280
		C0,412.569,13.431,426,30,426z"/>
</g>
<g>
	<path style="fill:#6E76E5;" d="M82,86H56v340h26c16.569,0,30-13.432,30-30V116C112,99.432,98.569,86,82,86z"/>
	<path style="fill:#6E76E5;" d="M327,86v340h185V86H327z"/>
</g>
<g>
	<circle style="fill:#FFFFFF;" cx="257" cy="326" r="20"/>
	<circle style="fill:#FFFFFF;" cx="257" cy="256" r="20"/>
	<circle style="fill:#FFFFFF;" cx="327" cy="326" r="20"/>
	<circle style="fill:#FFFFFF;" cx="327" cy="256" r="20"/>
</g>
<g>
	<circle style="fill:#CCEFFF;" cx="397" cy="326" r="20"/>
	<circle style="fill:#CCEFFF;" cx="397" cy="256" r="20"/>
</g>
<rect x="237" y="161" style="fill:#0A4EAF;" width="180" height="40"/>
<rect x="327" y="161" style="fill:#063E8B;" width="90" height="40"/>
<g>
	<path style="fill:#CCEFFF;" d="M327,276c11.046,0,20-8.954,20-20s-8.954-20-20-20V276z"/>
	<path style="fill:#CCEFFF;" d="M327,306v40c11.046,0,20-8.954,20-20S338.046,306,327,306z"/>
</g>
<g>
</g>
<g>
</g>
<g>
</g>
<g>
</g>
<g>
</g>
<g>
</g>
<g>
</g>
<g>
</g>
<g>
</g>
<g>
</g>
<g>
</g>
<g>
</g>
<g>
</g>
<g>
</g>
<g>
</g>
</svg>
