<?xml version="1.0" encoding="utf-8"?>
<!-- Generator: Adobe Illustrator 23.0.3, SVG Export Plug-In . SVG Version: 6.00 Build 0)  -->
<svg version="1.1" id="Layer_1" xmlns="http://www.w3.org/2000/svg" xmlns:xlink="http://www.w3.org/1999/xlink" x="0px" y="0px"
	 viewBox="0 0 480 480" style="enable-background:new 0 0 480 480;" xml:space="preserve">
<style type="text/css">
	.st0{fill:url(#SVGID_1_);}
</style>
<linearGradient id="SVGID_1_" gradientUnits="userSpaceOnUse" x1="56.1543" y1="85.7819" x2="423.8476" y2="394.3132">
	<stop  offset="0" style="stop-color:#2183BF"/>
	<stop  offset="1" style="stop-color:#19086D"/>
</linearGradient>
<path class="st0" d="M240,0.1L240,0.1C107.4,0.1,0,107.5,0,240c0,132.5,107.4,240,240,240h0.1c132.5,0,240-107.4,240-240
	C480,107.5,372.6,0.1,240,0.1z M446,152.1H339.8c-6.2-22.2-14.8-43.7-25.7-64h90.3C421.8,106.9,435.9,128.5,446,152.1z M240,18.7
	c17.5,15.8,32.9,33.7,45.9,53.4h-91.7C207.1,52.4,222.5,34.5,240,18.7z M175,72.1H92.1c35.2-31.2,79.4-50.4,126.2-54.9
	C201.8,33.7,187.2,52.1,175,72.1z M261.6,17.2c46.8,4.5,91.1,23.8,126.3,54.9H305C292.8,52.1,278.2,33.7,261.6,17.2z M295.8,88.1
	c11.7,20.2,20.9,41.6,27.6,64H156.7c6.6-22.3,15.9-43.8,27.5-64H295.8z M75.7,88.1h90.2c-10.9,20.3-19.5,41.8-25.7,64H34.1
	C44.2,128.5,58.3,106.9,75.7,88.1z M28,168.1h424c15.9,46.7,15.9,97.3,0,144H28C12.1,265.4,12.1,214.7,28,168.1z M240,461.4
	c-17.5-15.8-32.9-33.7-45.8-53.4h91.7C272.9,427.7,257.5,445.6,240,461.4L240,461.4z M305,408h82.9c-35.3,31.2-79.5,50.4-126.4,54.9
	C278.2,446.4,292.8,428,305,408z M218.3,462.9c-46.8-4.5-91-23.8-126.2-54.9H175C187.2,428,201.8,446.4,218.3,462.9z M184.3,392
	c-11.7-20.2-20.9-41.6-27.5-64h166.6c-6.7,22.3-15.9,43.8-27.6,64H184.3z M34.1,328h106.1c6.2,22.2,14.8,43.7,25.7,64H75.7
	C58.3,373.2,44.2,351.6,34.1,328z M404.4,392h-90.3c10.9-20.3,19.5-41.8,25.7-64H446C435.9,351.6,421.8,373.2,404.4,392z
	 M64.4,282.1c0.9,3.4,4,5.9,7.6,5.9h0.1c3.5,0,6.6-2.3,7.7-5.7l16.3-54.4l16.3,54.4c1,3.4,4.1,5.7,7.7,5.7h0.1
	c3.6,0,6.7-2.4,7.6-5.9l24-88l-15.4-4.2l-16.6,61l-16-53.2c-1-3.4-4.1-5.7-7.7-5.7c-3.5,0-6.6,2.3-7.7,5.7l-16,53.2l-16.6-61
	l-15.4,4.2L64.4,282.1z M215.9,288h0.1c3.5,0,6.6-2.3,7.7-5.7l16.3-54.4l16.3,54.4c1,3.4,4.1,5.7,7.7,5.7h0.1c3.6,0,6.7-2.4,7.6-5.9
	l24-88l-15.4-4.2l-16.6,61l-16-53.2c-1-3.4-4.1-5.7-7.7-5.7c-3.5,0-6.6,2.3-7.7,5.7l-16,53.2l-16.6-61l-15.4,4.2l24,88
	C209.2,285.6,212.4,288,215.9,288z M359.9,288h0.1c3.5,0,6.6-2.3,7.7-5.7l16.3-54.4l16.3,54.4c1,3.4,4.1,5.7,7.7,5.7h0.1
	c3.6,0,6.7-2.4,7.6-5.9l24-88l-15.4-4.2l-16.6,61l-16-53.2c-1-3.4-4.1-5.7-7.7-5.7c-3.5,0-6.6,2.3-7.7,5.7l-16,53.2l-16.6-61
	l-15.4,4.2l24,88C353.2,285.6,356.3,288,359.9,288z"/>
</svg>
